<svg width="201" height="200" viewBox="0 0 201 200" fill="none" xmlns="http://www.w3.org/2000/svg">
<g clip-path="url(#clip0_41_822)">
<path d="M200.5 152.96H0.5V153.06H200.5V152.96Z" fill="#EBEBEB"/>
<path d="M180.46 159.396H167.212V159.496H180.46V159.396Z" fill="#EBEBEB"/>
<path d="M132.988 160.484H129.512V160.584H132.988V160.484Z" fill="#EBEBEB"/>
<path d="M166.812 155.684H159.136V155.784H166.812V155.684Z" fill="#EBEBEB"/>
<path d="M38.76 156.356H21.484V156.456H38.76V156.356Z" fill="#EBEBEB"/>
<path d="M44.856 156.356H42.324V156.456H44.856V156.356Z" fill="#EBEBEB"/>
<path d="M90.56 158.044H53.088V158.144H90.56V158.044Z" fill="#EBEBEB"/>
<path d="M95.3 135.12H18.064C17.4589 135.119 16.879 134.878 16.4516 134.45C16.0241 134.021 15.784 133.441 15.784 132.836V24.264C15.7893 23.6624 16.0317 23.0872 16.4586 22.6633C16.8855 22.2394 17.4624 22.001 18.064 22H95.3C95.9058 22 96.4867 22.2406 96.915 22.669C97.3434 23.0973 97.584 23.6782 97.584 24.284V132.836C97.584 133.442 97.3434 134.023 96.915 134.451C96.4867 134.879 95.9058 135.12 95.3 135.12ZM18.064 22.08C17.4855 22.0811 16.931 22.3116 16.5223 22.7211C16.1135 23.1306 15.884 23.6855 15.884 24.264V132.836C15.884 133.415 16.1135 133.969 16.5223 134.379C16.931 134.788 17.4855 135.019 18.064 135.02H95.3C95.8789 135.019 96.4338 134.789 96.8432 134.379C97.2525 133.97 97.483 133.415 97.484 132.836V24.264C97.483 23.6851 97.2525 23.1302 96.8432 22.7208C96.4338 22.3115 95.8789 22.0811 95.3 22.08H18.064Z" fill="#EBEBEB"/>
<path d="M181.824 135.12H104.584C103.979 135.119 103.398 134.878 102.97 134.45C102.542 134.022 102.301 133.441 102.3 132.836V24.264C102.306 23.662 102.55 23.0868 102.977 22.663C103.405 22.2392 103.982 22.001 104.584 22H181.824C182.425 22.0021 183.001 22.2409 183.427 22.6647C183.853 23.0885 184.095 23.6631 184.1 24.264V132.836C184.1 133.44 183.86 134.02 183.434 134.448C183.007 134.876 182.428 135.118 181.824 135.12ZM104.584 22.08C104.005 22.0811 103.45 22.3115 103.041 22.7208C102.631 23.1302 102.401 23.6851 102.4 24.264V132.836C102.401 133.415 102.631 133.97 103.041 134.379C103.45 134.789 104.005 135.019 104.584 135.02H181.824C182.403 135.019 182.958 134.789 183.367 134.379C183.776 133.97 184.007 133.415 184.008 132.836V24.264C184.007 23.6851 183.776 23.1302 183.367 22.7208C182.958 22.3115 182.403 22.0811 181.824 22.08H104.584Z" fill="#EBEBEB"/>
<path d="M119.204 30.1359L118.864 30.8199C118.844 30.8592 118.816 30.8932 118.78 30.9189C118.745 30.9447 118.703 30.9615 118.66 30.9679L117.904 31.0799C117.854 31.087 117.806 31.108 117.767 31.1407C117.728 31.1733 117.699 31.2162 117.683 31.2645C117.668 31.3128 117.666 31.3646 117.678 31.414C117.69 31.4634 117.716 31.5084 117.752 31.5439L118.3 32.0799C118.331 32.1108 118.355 32.1486 118.369 32.1903C118.383 32.232 118.386 32.2764 118.38 32.3199L118.248 33.0719C118.238 33.1227 118.243 33.1753 118.263 33.2233C118.282 33.2714 118.314 33.313 118.356 33.3432C118.398 33.3734 118.448 33.3911 118.5 33.394C118.551 33.397 118.603 33.3851 118.648 33.3599L119.324 33.0039C119.364 32.9841 119.408 32.9739 119.452 32.9739C119.496 32.9739 119.54 32.9841 119.58 33.0039L120.256 33.3599C120.301 33.3851 120.353 33.397 120.404 33.394C120.456 33.3911 120.506 33.3734 120.548 33.3432C120.59 33.313 120.622 33.2714 120.641 33.2233C120.661 33.1753 120.666 33.1227 120.656 33.0719L120.528 32.3199C120.519 32.2764 120.522 32.2314 120.536 32.1893C120.55 32.1472 120.575 32.1095 120.608 32.0799L121.152 31.5439C121.188 31.5084 121.214 31.4634 121.226 31.414C121.238 31.3646 121.236 31.3128 121.221 31.2645C121.205 31.2162 121.176 31.1733 121.137 31.1407C121.098 31.108 121.05 31.087 121 31.0799L120.244 30.9679C120.201 30.9615 120.159 30.9447 120.124 30.9189C120.088 30.8932 120.06 30.8592 120.04 30.8199L119.7 30.1359C119.678 30.0881 119.644 30.0476 119.6 30.0191C119.556 29.9907 119.504 29.9756 119.452 29.9756C119.4 29.9756 119.348 29.9907 119.304 30.0191C119.26 30.0476 119.226 30.0881 119.204 30.1359Z" fill="#F5F5F5"/>
<path d="M110.62 143.276L110.284 143.964C110.264 144.004 110.234 144.038 110.198 144.063C110.162 144.089 110.12 144.106 110.076 144.112L109.32 144.224C109.27 144.231 109.222 144.252 109.183 144.285C109.144 144.317 109.115 144.36 109.1 144.409C109.084 144.457 109.082 144.509 109.094 144.558C109.106 144.607 109.132 144.652 109.168 144.688L109.716 145.22C109.748 145.251 109.772 145.29 109.786 145.332C109.8 145.375 109.803 145.42 109.796 145.464L109.664 146.216C109.656 146.266 109.662 146.318 109.682 146.365C109.702 146.412 109.734 146.453 109.775 146.483C109.817 146.513 109.866 146.531 109.917 146.534C109.968 146.538 110.019 146.528 110.064 146.504L110.74 146.148C110.779 146.128 110.822 146.118 110.866 146.118C110.91 146.118 110.953 146.128 110.992 146.148L111.668 146.504C111.713 146.529 111.765 146.541 111.816 146.538C111.868 146.535 111.918 146.518 111.96 146.487C112.002 146.457 112.034 146.415 112.053 146.367C112.073 146.319 112.078 146.267 112.068 146.216L111.94 145.464C111.933 145.42 111.936 145.375 111.95 145.332C111.964 145.29 111.988 145.251 112.02 145.22L112.568 144.688C112.604 144.652 112.63 144.607 112.642 144.558C112.654 144.509 112.652 144.457 112.637 144.409C112.621 144.36 112.592 144.317 112.553 144.285C112.514 144.252 112.466 144.231 112.416 144.224L111.66 144.112C111.616 144.107 111.574 144.09 111.537 144.064C111.501 144.038 111.472 144.004 111.452 143.964L111.116 143.276C111.093 143.23 111.058 143.19 111.014 143.163C110.97 143.136 110.92 143.121 110.868 143.121C110.816 143.121 110.766 143.136 110.722 143.163C110.678 143.19 110.643 143.23 110.62 143.276Z" fill="#F0F0F0"/>
<path d="M170.236 100.152L169.896 100.836C169.877 100.876 169.848 100.91 169.813 100.937C169.777 100.963 169.736 100.981 169.692 100.988L168.936 101.096C168.886 101.104 168.839 101.126 168.8 101.159C168.761 101.192 168.732 101.235 168.716 101.283C168.701 101.332 168.699 101.384 168.711 101.433C168.723 101.483 168.748 101.528 168.784 101.564L169.332 102.096C169.364 102.127 169.387 102.166 169.4 102.208C169.414 102.251 169.416 102.296 169.408 102.34L169.28 103.092C169.27 103.143 169.275 103.195 169.295 103.243C169.314 103.291 169.346 103.333 169.388 103.363C169.43 103.394 169.48 103.411 169.532 103.414C169.583 103.417 169.635 103.405 169.68 103.38L170.356 103.024C170.395 103.002 170.439 102.991 170.484 102.991C170.529 102.991 170.573 103.002 170.612 103.024L171.288 103.38C171.333 103.405 171.385 103.417 171.436 103.414C171.488 103.411 171.538 103.394 171.58 103.363C171.622 103.333 171.654 103.291 171.673 103.243C171.693 103.195 171.698 103.143 171.688 103.092L171.56 102.34C171.552 102.296 171.554 102.251 171.568 102.208C171.581 102.166 171.604 102.127 171.636 102.096L172.184 101.564C172.22 101.528 172.245 101.483 172.257 101.433C172.269 101.384 172.267 101.332 172.252 101.283C172.236 101.235 172.207 101.192 172.168 101.159C172.129 101.126 172.082 101.104 172.032 101.096L171.276 100.988C171.232 100.981 171.191 100.963 171.155 100.937C171.12 100.91 171.091 100.876 171.072 100.836L170.732 100.152C170.71 100.104 170.676 100.064 170.632 100.035C170.588 100.007 170.536 99.9917 170.484 99.9917C170.432 99.9917 170.38 100.007 170.336 100.035C170.292 100.064 170.258 100.104 170.236 100.152Z" fill="#F0F0F0"/>
<path d="M86.596 122.668L86.392 123.068C86.3806 123.091 86.3637 123.111 86.3428 123.127C86.3219 123.142 86.2976 123.152 86.272 123.156L85.82 123.22C85.7895 123.224 85.7609 123.237 85.7373 123.256C85.7137 123.276 85.6961 123.302 85.6865 123.331C85.677 123.36 85.6757 123.392 85.6831 123.421C85.6904 123.451 85.706 123.478 85.728 123.5L86.056 123.82C86.0746 123.838 86.0883 123.861 86.096 123.886C86.1036 123.912 86.105 123.938 86.1 123.964L86.024 124.412C86.0176 124.442 86.0201 124.474 86.0311 124.502C86.0422 124.531 86.0613 124.556 86.0863 124.574C86.1112 124.593 86.1409 124.603 86.1717 124.605C86.2025 124.606 86.2332 124.599 86.26 124.584L86.66 124.372C86.6835 124.36 86.7096 124.354 86.736 124.354C86.7624 124.354 86.7884 124.36 86.812 124.372L87.212 124.584C87.239 124.599 87.2697 124.605 87.3005 124.604C87.3312 124.602 87.3608 124.591 87.3859 124.573C87.411 124.555 87.4304 124.531 87.4421 124.502C87.4538 124.474 87.4572 124.442 87.452 124.412L87.372 123.964C87.3684 123.938 87.3709 123.911 87.3792 123.886C87.3875 123.861 87.4015 123.839 87.42 123.82L87.748 123.5C87.77 123.478 87.7855 123.451 87.7929 123.421C87.8002 123.392 87.799 123.36 87.7894 123.331C87.7798 123.302 87.7622 123.276 87.7386 123.256C87.715 123.237 87.6864 123.224 87.656 123.22L87.204 123.156C87.1783 123.152 87.154 123.142 87.1331 123.127C87.1122 123.111 87.0953 123.091 87.084 123.068L86.88 122.668C86.8656 122.643 86.8449 122.622 86.8199 122.608C86.795 122.594 86.7667 122.586 86.738 122.586C86.7092 122.586 86.6809 122.594 86.656 122.608C86.6311 122.622 86.6104 122.643 86.596 122.668Z" fill="#F0F0F0"/>
<path d="M132.372 122.668L132.168 123.068C132.157 123.091 132.14 123.111 132.119 123.127C132.098 123.142 132.074 123.152 132.048 123.156L131.596 123.22C131.566 123.224 131.537 123.237 131.513 123.256C131.49 123.276 131.472 123.302 131.463 123.331C131.453 123.36 131.452 123.392 131.459 123.422C131.466 123.451 131.482 123.479 131.504 123.5L131.832 123.82C131.851 123.839 131.864 123.861 131.873 123.886C131.881 123.911 131.884 123.938 131.88 123.964L131.8 124.412C131.795 124.442 131.799 124.472 131.81 124.5C131.822 124.528 131.841 124.552 131.865 124.57C131.89 124.588 131.919 124.599 131.949 124.601C131.979 124.604 132.009 124.598 132.036 124.584L132.436 124.372C132.46 124.36 132.486 124.354 132.512 124.354C132.538 124.354 132.564 124.36 132.588 124.372L132.988 124.584C133.015 124.599 133.045 124.607 133.076 124.605C133.107 124.603 133.137 124.593 133.162 124.574C133.187 124.556 133.206 124.531 133.217 124.502C133.228 124.474 133.23 124.442 133.224 124.412L133.148 123.964C133.143 123.938 133.144 123.912 133.152 123.886C133.16 123.861 133.173 123.838 133.192 123.82L133.52 123.5C133.542 123.479 133.558 123.451 133.565 123.422C133.572 123.392 133.571 123.36 133.561 123.331C133.552 123.302 133.534 123.276 133.511 123.256C133.487 123.237 133.458 123.224 133.428 123.22L132.976 123.156C132.95 123.152 132.926 123.142 132.905 123.127C132.884 123.111 132.867 123.091 132.856 123.068L132.652 122.668C132.637 122.644 132.617 122.624 132.592 122.61C132.568 122.597 132.54 122.589 132.512 122.589C132.484 122.589 132.456 122.597 132.432 122.61C132.407 122.624 132.387 122.644 132.372 122.668Z" fill="#F5F5F5"/>
<path d="M31.592 30.7601L31.388 31.1601C31.3769 31.1844 31.3595 31.2053 31.3378 31.2207C31.316 31.2362 31.2906 31.2456 31.264 31.2481L30.812 31.3161C30.7819 31.3209 30.7537 31.334 30.7306 31.3539C30.7076 31.3738 30.6905 31.3998 30.6814 31.4289C30.6722 31.458 30.6714 31.489 30.6789 31.5185C30.6864 31.5481 30.702 31.5749 30.724 31.5961L31.048 31.9121C31.067 31.9305 31.0813 31.9531 31.0896 31.9782C31.098 32.0033 31.1002 32.03 31.096 32.0561L31.02 32.5081C31.0153 32.5379 31.0189 32.5685 31.0304 32.5964C31.0419 32.6243 31.061 32.6485 31.0854 32.6663C31.1098 32.6841 31.1386 32.6948 31.1687 32.6972C31.1988 32.6997 31.229 32.6937 31.256 32.6801L31.656 32.4681C31.6795 32.4562 31.7056 32.4499 31.732 32.4499C31.7584 32.4499 31.7844 32.4562 31.808 32.4681L32.208 32.6801C32.2349 32.6937 32.2651 32.6997 32.2952 32.6972C32.3253 32.6948 32.3542 32.6841 32.3786 32.6663C32.403 32.6485 32.422 32.6243 32.4336 32.5964C32.4451 32.5685 32.4487 32.5379 32.444 32.5081L32.368 32.0561C32.3638 32.03 32.366 32.0033 32.3743 31.9782C32.3827 31.9531 32.397 31.9305 32.416 31.9121L32.744 31.5961C32.766 31.5747 32.7816 31.5475 32.7889 31.5177C32.7962 31.4878 32.795 31.4566 32.7854 31.4274C32.7758 31.3982 32.7582 31.3723 32.7346 31.3526C32.7111 31.3329 32.6824 31.3203 32.652 31.3161L32.2 31.2481C32.1735 31.2452 32.1482 31.2356 32.1265 31.2202C32.1048 31.2048 32.0874 31.1841 32.076 31.1601L31.876 30.7601C31.8625 30.7341 31.8421 30.7123 31.8171 30.6971C31.792 30.6819 31.7633 30.6738 31.734 30.6738C31.7047 30.6738 31.676 30.6819 31.6509 30.6971C31.6259 30.7123 31.6055 30.7341 31.592 30.7601Z" fill="#F5F5F5"/>
<path d="M35.068 106.252L34.716 106.96C34.6962 107.001 34.6664 107.037 34.6294 107.063C34.5924 107.09 34.5492 107.106 34.504 107.112L33.704 107.228C33.6517 107.235 33.6025 107.257 33.562 107.29C33.5215 107.324 33.4914 107.369 33.4751 107.419C33.4588 107.469 33.457 107.523 33.4699 107.574C33.4828 107.625 33.5099 107.672 33.548 107.708L34.112 108.26C34.1451 108.292 34.1697 108.332 34.1836 108.376C34.1976 108.42 34.2005 108.467 34.192 108.512L34.06 109.312C34.0532 109.362 34.0601 109.414 34.0799 109.46C34.0997 109.507 34.1317 109.548 34.1725 109.578C34.2134 109.608 34.2616 109.627 34.3122 109.632C34.3628 109.638 34.4138 109.629 34.46 109.608L35.156 109.24C35.1966 109.218 35.2419 109.207 35.288 109.207C35.334 109.207 35.3794 109.218 35.42 109.24L36.12 109.608C36.1662 109.629 36.2172 109.638 36.2678 109.632C36.3184 109.627 36.3666 109.608 36.4075 109.578C36.4483 109.548 36.4803 109.507 36.5001 109.46C36.5199 109.414 36.5268 109.362 36.52 109.312L36.384 108.512C36.3764 108.466 36.3801 108.419 36.3947 108.376C36.4094 108.332 36.4345 108.292 36.468 108.26L37.032 107.708C37.0701 107.672 37.0972 107.625 37.1101 107.574C37.123 107.523 37.1212 107.469 37.1049 107.419C37.0886 107.369 37.0585 107.324 37.018 107.29C36.9775 107.257 36.9283 107.235 36.876 107.228L36.076 107.112C36.0308 107.106 35.9876 107.09 35.9506 107.063C35.9135 107.037 35.8838 107.001 35.864 106.96L35.516 106.252C35.4894 106.218 35.4555 106.19 35.4166 106.171C35.3778 106.152 35.3352 106.143 35.292 106.143C35.2488 106.143 35.2062 106.152 35.1673 106.171C35.1285 106.19 35.0946 106.218 35.068 106.252Z" fill="#F0F0F0"/>
<path d="M77.916 39.9558C77.916 40.0612 77.9473 40.1642 78.006 40.2518C78.0646 40.3394 78.1479 40.4076 78.2454 40.4477C78.3428 40.4879 78.45 40.4982 78.5533 40.4773C78.6566 40.4565 78.7514 40.4054 78.8256 40.3306C78.8999 40.2558 78.9502 40.1606 78.9703 40.0572C78.9904 39.9537 78.9793 39.8466 78.9384 39.7495C78.8975 39.6523 78.8287 39.5695 78.7407 39.5116C78.6527 39.4536 78.5494 39.4231 78.444 39.4238C78.3744 39.4238 78.3054 39.4376 78.241 39.4644C78.1767 39.4912 78.1183 39.5304 78.0693 39.5799C78.0202 39.6294 77.9814 39.688 77.9551 39.7526C77.9288 39.8171 77.9155 39.8862 77.916 39.9558Z" fill="#F0F0F0"/>
<path d="M63.176 143.6C63.4698 143.6 63.708 143.362 63.708 143.068C63.708 142.774 63.4698 142.536 63.176 142.536C62.8822 142.536 62.644 142.774 62.644 143.068C62.644 143.362 62.8822 143.6 63.176 143.6Z" fill="#F5F5F5"/>
<path d="M43.32 53.256C40.5017 52.4129 37.7631 51.3234 35.136 50C35.5676 51.7136 36.4352 53.2864 37.6544 54.5656C38.8737 55.8447 40.4031 56.7868 42.094 57.3001C43.7849 57.8134 45.5799 57.8806 47.3045 57.4951C49.0291 57.1095 50.6246 56.2845 51.936 55.1C49.0154 54.7395 46.1323 54.1225 43.32 53.256Z" fill="#F5F5F5"/>
<path d="M45.068 46.7318C48.7 47.8358 52.804 47.1318 55.26 48.5398C55.4961 46.1802 54.9062 43.8116 53.5909 41.8383C52.2757 39.865 50.3165 38.4092 48.0477 37.7191C45.7788 37.0291 43.3408 37.1476 41.1496 38.0544C38.9584 38.9613 37.1497 40.6003 36.032 42.6918C38.848 42.9038 41.436 45.6278 45.068 46.7318Z" fill="#F5F5F5"/>
<path d="M29.644 42.8278C29.184 44.3358 35.72 47.6558 44.24 50.2438C52.76 52.8318 60.036 53.7118 60.492 52.2078C60.948 50.7038 54.416 47.3798 45.896 44.7998C37.376 42.2198 30.1 41.3238 29.644 42.8278Z" fill="#F5F5F5"/>
<path d="M157.348 82.5719C156.095 87.4097 153.535 91.8097 149.949 95.2902C146.363 98.7708 141.888 101.198 137.015 102.306C132.142 103.414 127.058 103.16 122.319 101.572C117.58 99.9848 113.37 97.1242 110.148 93.3039C106.34 88.7854 104.104 83.1518 103.776 77.2519C103.672 75.3969 103.762 73.5362 104.044 71.6999C104.186 70.7641 104.375 69.8362 104.612 68.9199C106.414 62.0294 110.842 56.1184 116.949 52.4531C123.056 48.7878 130.355 47.6596 137.283 49.3101C144.212 50.9606 150.218 55.2586 154.016 61.2835C157.814 67.3084 159.102 74.5811 157.604 81.5439C157.52 81.8839 157.436 82.2279 157.348 82.5719Z" fill="#EBEBEB"/>
<path d="M172.22 58.908C172.015 59.6994 171.597 60.4191 171.01 60.9885C170.423 61.5578 169.692 61.9549 168.895 62.1362C168.098 62.3175 167.266 62.276 166.491 62.0164C165.716 61.7567 165.027 61.2889 164.5 60.664C163.879 59.9249 163.514 59.0042 163.46 58.04C163.443 57.7367 163.458 57.4323 163.504 57.132C163.527 56.9786 163.558 56.8264 163.596 56.676C163.888 55.5462 164.612 54.5761 165.611 53.9741C166.611 53.3721 167.807 53.1863 168.942 53.4567C170.078 53.727 171.061 54.4318 171.683 55.4198C172.304 56.4077 172.512 57.5998 172.264 58.74C172.248 58.8 172.236 58.852 172.22 58.908Z" fill="#EBEBEB"/>
<path d="M157.592 81.5361L156.348 79.9641L154.5 84.8001L151.852 81.1401L150.432 75.6161L144.352 71.9321L145.1 73.5721L148.472 75.1081L150.072 78.3081L145.016 78.1201L139.7 73.2001L142.98 78.6321L145.556 80.6641L143.34 82.0001L139.44 87.3561L139.764 89.6641C139.764 89.6641 136.564 91.9721 136.216 92.0641C135.868 92.1561 129.096 96.5881 129.096 96.5881L131.7 87.5721L131.632 80.7201L125.232 81.0721L120.02 76.6361L123.524 69.2481L126.144 67.8681L128.812 68.5601L137.724 71.8361L137.684 70.2161L132.644 65.4161L129.404 64.8281L126.8 66.0001L125.3 65.6001L127.9 62.3361L130.3 61.2721L135.736 59.8481L139.796 61.3161L145.984 62.4001C145.984 62.4001 151.064 61.0761 153.512 60.4281C155.594 63.4832 157.029 66.9313 157.731 70.561C158.432 74.1907 158.385 77.9254 157.592 81.5361Z" fill="#FAFAFA"/>
<path d="M138.5 101.936C133.445 103.385 128.079 103.341 123.048 101.81C118.018 100.278 113.538 97.3243 110.148 93.3042L114.012 95.3482L117.524 98.2682L126.792 100.668L134.656 100.696L138.5 101.936Z" fill="#FAFAFA"/>
<path d="M124.22 50.9922L121.396 51.5962L122.92 53.9442L121.604 59.0242L133.04 57.0962L133.536 55.1802L129.828 54.0442L124.22 50.9922Z" fill="#FAFAFA"/>
<path d="M120.196 56.2442L118.328 60.1962L114.1 62.3642L109.504 64.2722L107.3 66.5562L105.492 66.0882C107.861 59.8115 112.471 54.6346 118.432 51.5562L120.196 56.2442Z" fill="#FAFAFA"/>
<path d="M115.132 82.5722L111.828 84.9722L111.692 87.4482L111.324 88.8602L111.128 91.2402L110.132 90.5642L108.232 86.8882L106.632 81.0762L104.468 77.7922L103.756 77.2322C103.652 75.3772 103.742 73.5165 104.024 71.6802L104.864 72.7002L108.58 72.2602L111.876 73.1122L112.596 76.1602L113.9 78.8922L116.9 80.5602L115.132 82.5722Z" fill="#FAFAFA"/>
<path d="M100.5 171.024C143.333 171.024 178.056 168.997 178.056 166.496C178.056 163.995 143.333 161.968 100.5 161.968C57.667 161.968 22.944 163.995 22.944 166.496C22.944 168.997 57.667 171.024 100.5 171.024Z" fill="#F5F5F5"/>
<path d="M92.444 67.5999C93.96 66.6319 94.844 64.6639 96.044 63.3519C98.444 60.7479 102.152 56.4959 102.712 54.0799L93.4 50.8799L90.316 58.3999C89.664 60.1439 86.76 62.6919 85.148 63.5199C84.204 64.0119 83.172 64.4479 82.124 64.8839C80.02 65.7319 77.76 66.4839 75.572 67.2399L76.124 71.2119C77.3979 71.2234 78.6715 71.17 79.94 71.0519C81.2 70.9319 82.464 70.7719 83.728 70.5319C85.026 70.2972 86.3083 69.9833 87.568 69.5919C88.864 69.1999 91.108 68.4479 92.444 67.5999Z" fill="#E70000"/>
<path opacity="0.8" d="M92.444 67.5999C93.96 66.6319 94.844 64.6639 96.044 63.3519C98.444 60.7479 102.152 56.4959 102.712 54.0799L93.4 50.8799L90.316 58.3999C89.664 60.1439 86.76 62.6919 85.148 63.5199C84.204 64.0119 83.172 64.4479 82.124 64.8839C80.02 65.7319 77.76 66.4839 75.572 67.2399L76.124 71.2119C77.3979 71.2234 78.6715 71.17 79.94 71.0519C81.2 70.9319 82.464 70.7719 83.728 70.5319C85.026 70.2972 86.3083 69.9833 87.568 69.5919C88.864 69.1999 91.108 68.4479 92.444 67.5999Z" fill="white"/>
<path d="M82.724 71.2561L81.036 64.8921C81.036 64.8921 71.256 66.6761 70.944 69.3841C70.624 72.1841 77.432 72.1161 82.724 71.2561Z" fill="#263238"/>
<path d="M75.7 67.9399L77.116 65.9399C77.116 65.9399 72.148 65.3119 72.016 66.1079C71.852 67.1999 73.328 67.9439 75.7 67.9399Z" fill="#263238"/>
<path d="M120.76 110.54C120.657 110.541 120.556 110.505 120.476 110.44C118.544 108.896 112.412 103.428 114.476 97.9601C116.164 93.4721 120.26 89.6921 125.156 88.0881C127.037 87.5261 128.959 87.1115 130.904 86.8481C132.22 86.6361 133.58 86.4161 134.88 86.1041C140.86 84.6681 143.872 80.7201 142.74 75.8001C142.224 73.5721 140.844 71.7721 139.38 69.8641C138.216 68.3521 137.02 66.7881 136.296 64.9961C136.296 64.9961 136.296 64.9641 136.296 64.9481C135.612 62.5041 136.584 60.1481 137.528 57.8842C137.748 57.3522 137.956 56.8482 138.148 56.3402C138.948 54.1682 139.688 51.8322 139.564 49.4722C139.416 46.6722 137.54 43.6482 134.788 41.8122C130.488 38.9362 122.552 36.3682 119.188 39.9802C118.901 40.3055 118.634 40.6475 118.388 41.0042C118.051 41.4847 117.674 41.9357 117.26 42.3522C116.571 42.9806 115.749 43.4452 114.856 43.7112C113.962 43.9771 113.02 44.0376 112.1 43.8882C111.145 43.7257 110.241 43.3452 109.457 42.7764C108.673 42.2075 108.031 41.4655 107.58 40.6082C107.553 40.5546 107.538 40.4964 107.534 40.4367C107.53 40.3771 107.538 40.3173 107.557 40.2608C107.576 40.2042 107.607 40.1521 107.646 40.1073C107.686 40.0626 107.734 40.0262 107.788 40.0002C107.842 39.9735 107.9 39.9577 107.96 39.9537C108.02 39.9498 108.08 39.9577 108.137 39.977C108.194 39.9963 108.247 40.0267 108.292 40.0664C108.337 40.106 108.374 40.1542 108.4 40.2082C108.77 40.9241 109.299 41.5455 109.947 42.0244C110.595 42.5032 111.344 42.8267 112.137 42.9697C112.93 43.1128 113.745 43.0716 114.52 42.8494C115.294 42.6272 116.007 42.2299 116.604 41.6882C116.979 41.3077 117.321 40.897 117.628 40.4602C117.898 40.0773 118.189 39.71 118.5 39.3602C122.636 34.9282 131.592 38.5882 135.3 41.0522C138.28 43.0522 140.316 46.3322 140.48 49.4241C140.612 51.9521 139.852 54.3961 139.004 56.6601C138.812 57.1841 138.604 57.7161 138.376 58.2361C137.496 60.3561 136.584 62.5441 137.176 64.6801C137.852 66.3481 139.008 67.8521 140.128 69.3081C141.584 71.2081 143.092 73.1721 143.652 75.5961C144.888 80.9761 141.54 85.4481 135.116 86.9921C133.784 87.3121 132.408 87.5361 131.076 87.7481C129.181 88.0027 127.309 88.4039 125.476 88.9481C120.836 90.4641 116.96 94.0401 115.364 98.2721C113.52 103.168 119.276 108.272 121.084 109.72C121.153 109.78 121.203 109.86 121.226 109.948C121.249 110.037 121.245 110.131 121.215 110.217C121.184 110.303 121.128 110.378 121.054 110.432C120.98 110.487 120.892 110.517 120.8 110.52L120.76 110.54Z" fill="#E70000"/>
<path opacity="0.7" d="M120.76 110.54C120.657 110.541 120.556 110.505 120.476 110.44C118.544 108.896 112.412 103.428 114.476 97.9601C116.164 93.4721 120.26 89.6921 125.156 88.0881C127.037 87.5261 128.959 87.1115 130.904 86.8481C132.22 86.6361 133.58 86.4161 134.88 86.1041C140.86 84.6681 143.872 80.7201 142.74 75.8001C142.224 73.5721 140.844 71.7721 139.38 69.8641C138.216 68.3521 137.02 66.7881 136.296 64.9961C136.296 64.9961 136.296 64.9641 136.296 64.9481C135.612 62.5041 136.584 60.1481 137.528 57.8842C137.748 57.3522 137.956 56.8482 138.148 56.3402C138.948 54.1682 139.688 51.8322 139.564 49.4722C139.416 46.6722 137.54 43.6482 134.788 41.8122C130.488 38.9362 122.552 36.3682 119.188 39.9802C118.901 40.3055 118.634 40.6475 118.388 41.0042C118.051 41.4847 117.674 41.9357 117.26 42.3522C116.571 42.9806 115.749 43.4452 114.856 43.7112C113.962 43.9771 113.02 44.0376 112.1 43.8882C111.145 43.7257 110.241 43.3452 109.457 42.7764C108.673 42.2075 108.031 41.4655 107.58 40.6082C107.553 40.5546 107.538 40.4964 107.534 40.4367C107.53 40.3771 107.538 40.3173 107.557 40.2608C107.576 40.2042 107.607 40.1521 107.646 40.1073C107.686 40.0626 107.734 40.0262 107.788 40.0002C107.842 39.9735 107.9 39.9577 107.96 39.9537C108.02 39.9498 108.08 39.9577 108.137 39.977C108.194 39.9963 108.247 40.0267 108.292 40.0664C108.337 40.106 108.374 40.1542 108.4 40.2082C108.77 40.9241 109.299 41.5455 109.947 42.0244C110.595 42.5032 111.344 42.8267 112.137 42.9697C112.93 43.1128 113.745 43.0716 114.52 42.8494C115.294 42.6272 116.007 42.2299 116.604 41.6882C116.979 41.3077 117.321 40.897 117.628 40.4602C117.898 40.0773 118.189 39.71 118.5 39.3602C122.636 34.9282 131.592 38.5882 135.3 41.0522C138.28 43.0522 140.316 46.3322 140.48 49.4241C140.612 51.9521 139.852 54.3961 139.004 56.6601C138.812 57.1841 138.604 57.7161 138.376 58.2361C137.496 60.3561 136.584 62.5441 137.176 64.6801C137.852 66.3481 139.008 67.8521 140.128 69.3081C141.584 71.2081 143.092 73.1721 143.652 75.5961C144.888 80.9761 141.54 85.4481 135.116 86.9921C133.784 87.3121 132.408 87.5361 131.076 87.7481C129.181 88.0027 127.309 88.4039 125.476 88.9481C120.836 90.4641 116.96 94.0401 115.364 98.2721C113.52 103.168 119.276 108.272 121.084 109.72C121.153 109.78 121.203 109.86 121.226 109.948C121.249 110.037 121.245 110.131 121.215 110.217C121.184 110.303 121.128 110.378 121.054 110.432C120.98 110.487 120.892 110.517 120.8 110.52L120.76 110.54Z" fill="white"/>
<path opacity="0.2" d="M93.7 60.672C93.184 61.532 93.068 64.272 93.332 66.864C94.356 65.832 95.1 64.38 96.052 63.34L96.252 63.124C95.196 61.636 93.996 60.144 93.7 60.672Z" fill="#263238"/>
<path d="M93.392 50.8483C93.392 50.8483 90.992 60.6443 97.816 76.8483L116.1 73.6003C115.788 71.1083 111.86 59.8003 112.5 47.6883C110.435 47.4535 108.349 47.4535 106.284 47.6883C103.667 48.019 101.069 48.4822 98.5 49.0763C96.7586 49.5487 95.0518 50.1408 93.392 50.8483Z" fill="#E70000"/>
<path opacity="0.8" d="M93.392 50.8483C93.392 50.8483 90.992 60.6443 97.816 76.8483L116.1 73.6003C115.788 71.1083 111.86 59.8003 112.5 47.6883C110.435 47.4535 108.349 47.4535 106.284 47.6883C103.667 48.019 101.069 48.4822 98.5 49.0763C96.7586 49.5487 95.0518 50.1408 93.392 50.8483Z" fill="white"/>
<path opacity="0.2" d="M110.384 56.8359C111.182 57.8357 112.095 58.7379 113.104 59.5239C112.984 58.6879 112.872 57.8319 112.78 56.9599L110.384 56.8359Z" fill="#263238"/>
<path d="M97.816 76.8679C97.816 76.8679 88.552 87.6279 89.308 96.9159C90.108 106.58 100.164 122.416 100.164 122.416L106.276 119.352C106.276 119.352 102.276 102.708 99.172 97.8719C102.556 92.2359 107.024 85.5079 110.108 75.1919C104.46 76.1999 97.816 76.8679 97.816 76.8679Z" fill="#E70000"/>
<path opacity="0.8" d="M97.816 76.8679C97.816 76.8679 88.552 87.6279 89.308 96.9159C90.108 106.58 100.164 122.416 100.164 122.416L106.276 119.352C106.276 119.352 102.276 102.708 99.172 97.8719C102.556 92.2359 107.024 85.5079 110.108 75.1919C104.46 76.1999 97.816 76.8679 97.816 76.8679Z" fill="white"/>
<path opacity="0.2" d="M106.5 82.4999C104.82 83.7679 103.796 87.4959 103.768 90.0999C105.188 87.5578 106.463 84.9376 107.588 82.2519C107.399 82.2134 107.205 82.2157 107.017 82.2584C106.83 82.3012 106.653 82.3835 106.5 82.4999Z" fill="#263238"/>
<path d="M100.328 121.84L105.528 118.668C105.611 118.628 105.705 118.617 105.795 118.639C105.884 118.66 105.964 118.711 106.02 118.784L108.24 122.616C108.311 122.692 108.365 122.783 108.397 122.883C108.429 122.982 108.439 123.088 108.426 123.191C108.412 123.295 108.376 123.394 108.32 123.482C108.264 123.57 108.188 123.645 108.1 123.7C106.568 124.5 106.452 124.428 104.544 125.476C103.372 126.124 101.028 127.592 99.408 128.484C97.788 129.376 96.676 127.78 97.156 127.156C98.936 124.856 99.428 123.956 99.848 122.452C99.8833 122.323 99.9439 122.203 100.026 122.098C100.109 121.993 100.211 121.905 100.328 121.84Z" fill="#E70000"/>
<path opacity="0.8" d="M100.328 121.84L105.528 118.668C105.611 118.628 105.705 118.617 105.795 118.639C105.884 118.66 105.964 118.711 106.02 118.784L108.24 122.616C108.311 122.692 108.365 122.783 108.397 122.883C108.429 122.982 108.439 123.088 108.426 123.191C108.412 123.295 108.376 123.394 108.32 123.482C108.264 123.57 108.188 123.645 108.1 123.7C106.568 124.5 106.452 124.428 104.544 125.476C103.372 126.124 101.028 127.592 99.408 128.484C97.788 129.376 96.676 127.78 97.156 127.156C98.936 124.856 99.428 123.956 99.848 122.452C99.8833 122.323 99.9439 122.203 100.026 122.098C100.109 121.993 100.211 121.905 100.328 121.84Z" fill="white"/>
<path d="M141.032 127.856L110.56 159.06L105.316 148.428L130.28 122.864L141.032 127.856Z" fill="#E70000"/>
<path opacity="0.4" d="M141.032 127.856L110.56 159.06L105.316 148.428L130.28 122.864L141.032 127.856Z" fill="#263238"/>
<path d="M137.464 135.024L117.644 155.324L108.768 143.072L125.008 126.444L137.464 135.024Z" fill="#E70000"/>
<path opacity="0.3" d="M137.464 135.024L117.644 155.324L108.768 143.072L125.008 126.444L137.464 135.024Z" fill="#263238"/>
<path d="M81.464 128.548C81.464 128.548 89.264 136.856 95.964 144.084C96.8973 145.116 97.5438 146.375 97.8393 147.735C98.1348 149.095 98.0688 150.509 97.648 151.836C96.1 157.036 98.368 166.208 98.368 166.208C90.956 159.888 71.052 154.36 81.464 128.548Z" fill="#E70000"/>
<path opacity="0.3" d="M81.464 128.548C81.464 128.548 89.264 136.856 95.964 144.084C96.8973 145.116 97.5438 146.375 97.8393 147.735C98.1348 149.095 98.0688 150.509 97.648 151.836C96.1 157.036 98.368 166.208 98.368 166.208C90.956 159.888 71.052 154.36 81.464 128.548Z" fill="#263238"/>
<path d="M109.84 99.492C109.84 99.492 118.332 107.092 125.716 113.62C126.77 114.528 128.044 115.144 129.41 115.407C130.776 115.67 132.188 115.571 133.504 115.12C138.648 113.448 147.904 115.5 147.904 115.5C141.396 108.24 135.4 88.472 109.84 99.492Z" fill="#E70000"/>
<path opacity="0.3" d="M109.84 99.492C109.84 99.492 118.332 107.092 125.716 113.62C126.77 114.528 128.044 115.144 129.41 115.407C130.776 115.67 132.188 115.571 133.504 115.12C138.648 113.448 147.904 115.5 147.904 115.5C141.396 108.24 135.4 88.472 109.84 99.492Z" fill="#263238"/>
<path d="M90.38 79.4639C73.68 64.9239 55.652 60.4039 48.38 67.8639C41.108 75.3239 46.056 93.2319 60.984 109.58L98.024 150.14C98.7518 150.936 99.6343 151.575 100.618 152.018C101.601 152.461 102.664 152.699 103.743 152.717C104.821 152.735 105.892 152.533 106.889 152.123C107.887 151.712 108.79 151.103 109.544 150.332L132.276 127.056C133.029 126.284 133.617 125.366 134.004 124.359C134.39 123.352 134.567 122.277 134.523 121.199C134.479 120.121 134.216 119.064 133.749 118.091C133.282 117.119 132.622 116.252 131.808 115.544L90.38 79.4639Z" fill="#E70000"/>
<path opacity="0.1" d="M110.016 144.204C110.221 144.306 110.399 144.455 110.536 144.639C110.673 144.823 110.765 145.037 110.804 145.263C110.843 145.489 110.828 145.721 110.76 145.94C110.693 146.159 110.575 146.359 110.416 146.524C107.976 149.044 103.356 148.404 100.312 145.12L63.564 105.52C56.18 97.5641 50.928 89.5201 48.208 82.7641C47.408 80.7641 50.184 79.3601 51.34 81.1641C55.024 86.9201 60.516 93.7921 67.392 100.956L106.072 141.2C107.212 142.412 108.545 143.427 110.016 144.204Z" fill="white"/>
<path opacity="0.1" d="M63.74 64.916C60.004 64.78 55.312 66.916 51.456 70.86C47.6 74.804 45.584 79.548 45.804 83.284C44.296 76.744 45.084 71.228 48.376 67.852C51.668 64.476 57.168 63.56 63.74 64.916Z" fill="#263238"/>
<path opacity="0.3" d="M76.6533 109.393C84.4876 109.237 90.7121 102.76 90.5562 94.9253C90.4003 87.0911 83.923 80.8665 76.0888 81.0224C68.2545 81.1783 62.0299 87.6556 62.1858 95.4899C62.3417 103.324 68.819 109.549 76.6533 109.393Z" fill="#263238"/>
<path d="M87.0738 103.486C91.9066 97.318 90.8243 88.4001 84.6563 83.5673C78.4883 78.7344 69.5704 79.8168 64.7376 85.9847C59.9048 92.1527 60.9871 101.071 67.1551 105.903C73.3231 110.736 82.241 109.654 87.0738 103.486Z" fill="white"/>
<path opacity="0.7" d="M85.5799 103.18C90.2382 97.8363 89.6826 89.728 84.3389 85.0696C78.9952 80.4113 70.8869 80.9669 66.2285 86.3106C61.5702 91.6544 62.1258 99.7627 67.4695 104.421C72.8132 109.079 80.9215 108.524 85.5799 103.18Z" fill="#E70000"/>
<g opacity="0.2">
<path opacity="0.2" d="M66.724 85.7638C65.5016 87.0052 64.5484 88.4854 63.924 90.1118L70.068 106.168C72.5498 107.429 75.3741 107.85 78.116 107.368L69.1159 83.8398C68.2443 84.3829 67.4412 85.0289 66.724 85.7638Z" fill="white"/>
<path opacity="0.2" d="M70.0599 83.308L79.1759 107.144C80.5789 106.777 81.9097 106.175 83.1119 105.364L74.1919 82C72.7492 82.193 71.351 82.6356 70.0599 83.308Z" fill="white"/>
</g>
<path d="M124.056 122.96L126.772 117.54C126.821 117.463 126.895 117.405 126.982 117.376C127.068 117.347 127.162 117.348 127.248 117.38L131.088 119.18C131.189 119.207 131.282 119.255 131.362 119.322C131.442 119.39 131.506 119.474 131.55 119.568C131.593 119.663 131.615 119.766 131.614 119.871C131.613 119.975 131.589 120.078 131.544 120.172C130.68 121.66 130.612 121.924 129.544 123.816C128.896 124.98 127.692 127.456 126.796 129.064C125.9 130.672 124.112 129.908 124.188 129.128C124.472 126.244 124.4 125.212 123.964 123.732C123.927 123.604 123.915 123.469 123.931 123.336C123.947 123.204 123.989 123.076 124.056 122.96Z" fill="#E70000"/>
<path opacity="0.8" d="M124.056 122.96L126.772 117.54C126.821 117.463 126.895 117.405 126.982 117.376C127.068 117.347 127.162 117.348 127.248 117.38L131.088 119.18C131.189 119.207 131.282 119.255 131.362 119.322C131.442 119.39 131.506 119.474 131.55 119.568C131.593 119.663 131.615 119.766 131.614 119.871C131.613 119.975 131.589 120.078 131.544 120.172C130.68 121.66 130.612 121.924 129.544 123.816C128.896 124.98 127.692 127.456 126.796 129.064C125.9 130.672 124.112 129.908 124.188 129.128C124.472 126.244 124.4 125.212 123.964 123.732C123.927 123.604 123.915 123.469 123.931 123.336C123.947 123.204 123.989 123.076 124.056 122.96Z" fill="white"/>
<path d="M104.296 75.7159C104.296 75.7159 104.332 92.7399 107.992 100.968C112 110 124.304 124 124.304 124L128.944 119.34C128.944 119.34 123.092 106.54 117.66 99.6959C117.548 91.2639 118.46 82.0639 116.22 74.4199C112.283 75.1482 108.297 75.5814 104.296 75.7159Z" fill="#E70000"/>
<path opacity="0.8" d="M104.296 75.7159C104.296 75.7159 104.332 92.7399 107.992 100.968C112 110 124.304 124 124.304 124L128.944 119.34C128.944 119.34 123.092 106.54 117.66 99.6959C117.548 91.2639 118.46 82.0639 116.22 74.4199C112.283 75.1482 108.297 75.5814 104.296 75.7159Z" fill="white"/>
<path d="M115.628 75.7243C107.144 77.6843 100.756 77.8843 98.152 77.8643C97.9871 77.8647 97.8238 77.8311 97.6725 77.7656C97.5211 77.7001 97.3849 77.6041 97.2723 77.4836C97.1597 77.3631 97.0732 77.2207 97.018 77.0653C96.9629 76.9099 96.9404 76.7448 96.952 76.5803C96.9665 76.2683 97.1021 75.9743 97.3299 75.7607C97.5577 75.5471 97.8597 75.4307 98.172 75.4363C103.871 75.3816 109.545 74.6852 115.088 73.3602C115.242 73.3234 115.401 73.3172 115.557 73.3422C115.713 73.3671 115.863 73.4226 115.997 73.5055C116.132 73.5883 116.249 73.697 116.341 73.8251C116.434 73.9533 116.5 74.0984 116.536 74.2523C116.576 74.4086 116.585 74.5715 116.56 74.7312C116.536 74.8909 116.48 75.044 116.395 75.1815C116.31 75.3189 116.199 75.4378 116.067 75.5311C115.935 75.6244 115.786 75.6901 115.628 75.7243Z" fill="#263238"/>
<path d="M125.036 57.9761C124.316 56.3241 123.316 55.2281 121.968 54.0681C119.3 51.7601 114.9 48.1841 112.5 47.7041L109.584 57.1161L117.248 59.9441C118.764 61.0241 119.104 61.7361 119.552 63.4921C119.82 64.5241 120.016 65.6241 120.208 66.7441C120.564 68.9801 120.812 71.3601 121.048 73.6561L125.048 74.0001C125.343 72.7608 125.574 71.5071 125.74 70.2441C125.904 68.9921 126.028 67.7241 126.076 66.4361C126.138 65.1187 126.117 63.7988 126.012 62.4841C125.932 60.9386 125.603 59.4162 125.036 57.9761Z" fill="#E70000"/>
<path opacity="0.8" d="M125.036 57.9761C124.316 56.3241 123.316 55.2281 121.968 54.0681C119.3 51.7601 114.9 48.1841 112.5 47.7041L109.584 57.1161L117.248 59.9441C118.764 61.0241 119.104 61.7361 119.552 63.4921C119.82 64.5241 120.016 65.6241 120.208 66.7441C120.564 68.9801 120.812 71.3601 121.048 73.6561L125.048 74.0001C125.343 72.7608 125.574 71.5071 125.74 70.2441C125.904 68.9921 126.028 67.7241 126.076 66.4361C126.138 65.1187 126.117 63.7988 126.012 62.4841C125.932 60.9386 125.603 59.4162 125.036 57.9761Z" fill="white"/>
<path d="M126.252 67.7881H119.94C119.94 67.7881 119.504 77.7241 122.072 78.6281C124.728 79.5761 125.912 73.1401 126.252 67.7881Z" fill="#263238"/>
<path d="M121.724 73.6721L120.1 71.8481C120.1 71.8481 118.584 75.9962 119.508 76.5082C120.432 77.0202 121.2 76.0001 121.724 73.6721Z" fill="#263238"/>
<path opacity="0.2" d="M106.264 47.6959C103.654 48.0247 101.063 48.4853 98.5 49.0759C97.52 49.3319 96.576 49.6399 95.764 49.9239C97.5095 50.5611 99.3879 50.7455 101.224 50.4599C101.88 50.3513 102.52 50.1647 103.132 49.9039C104.892 49.4625 106.54 48.6587 107.972 47.5439C107.408 47.5719 106.832 47.6199 106.264 47.6959Z" fill="#263238"/>
<path d="M103.16 40.3081C103.12 42.5841 103.408 46.7081 105.208 47.8841C105.208 47.8841 105.232 48.8801 101.512 49.5321C98.476 50.0641 98.3719 49.1001 98.3719 49.1001C100.72 48.0761 100.332 46.2681 99.6 44.6361L103.16 40.3081Z" fill="#FFB573"/>
<path opacity="0.2" d="M101.7 42.0723L99.5959 44.6363C99.7701 45.0142 99.912 45.4063 100.02 45.8083C100.936 45.5083 102.04 44.2523 101.964 43.2523C101.947 42.8464 101.857 42.4468 101.7 42.0723Z" fill="#263238"/>
<path d="M96.204 40.0602C95.128 38.6002 93.912 36.4842 94.436 35.4362C94.96 34.3882 97.144 33.7762 98.136 34.5442C99.38 35.5162 98.472 38.5362 96.204 40.0602Z" fill="#263238"/>
<path d="M103.3 37.2001C103.392 40.2281 103.6 42.0001 102.22 43.6841C100.144 46.2201 96.3 45.1801 95.304 42.2401C94.412 39.6001 94.416 35.0721 97.252 33.6001C97.8773 33.274 98.5757 33.1132 99.2807 33.133C99.9857 33.1528 100.674 33.3526 101.28 33.7133C101.886 34.0741 102.39 34.5838 102.743 35.1941C103.097 35.8044 103.289 36.4949 103.3 37.2001Z" fill="#FFB573"/>
<path d="M103.196 40.0279C101.852 38.8279 100.24 36.9759 100.548 35.8439C100.856 34.7119 102.872 33.6799 103.996 34.2439C105.408 34.9399 105.116 38.0839 103.196 40.0279Z" fill="#263238"/>
<path d="M101.7 35.6561C99.632 36.2281 93.784 37.3801 94.604 34.9161C95.424 32.4521 98.64 31.9841 99.804 32.5161C100.968 33.0481 101.888 31.6401 101.888 31.6401C102.056 32.0401 101.164 33.1401 99.888 33.3201C98.612 33.5001 105.4 32.3201 103.62 34.7361C101.84 37.1521 101.7 35.6561 101.7 35.6561Z" fill="#263238"/>
<path d="M104.968 40.4002C104.797 40.7367 104.561 41.036 104.274 41.2811C103.988 41.5261 103.655 41.7121 103.296 41.8282C102.336 42.1362 101.82 41.2842 102.056 40.3562C102.268 39.5202 103.028 38.3562 104.008 38.4562C104.222 38.4813 104.426 38.5595 104.602 38.6837C104.779 38.8079 104.921 38.9742 105.016 39.1674C105.112 39.3606 105.157 39.5746 105.149 39.7899C105.14 40.0053 105.078 40.2151 104.968 40.4002Z" fill="#FFB573"/>
<path d="M98.812 38.4479C98.836 38.6919 98.724 38.9039 98.564 38.9199C98.404 38.9359 98.256 38.7479 98.232 38.5199C98.208 38.2919 98.32 38.0639 98.48 38.0519C98.64 38.0399 98.788 38.2039 98.812 38.4479Z" fill="#263238"/>
<path d="M96.04 38.7039C96.064 38.9479 95.952 39.1599 95.792 39.1719C95.632 39.1839 95.48 38.9999 95.46 38.7719C95.44 38.5439 95.548 38.3159 95.708 38.2999C95.868 38.2839 96.016 38.4559 96.04 38.7039Z" fill="#263238"/>
<path d="M96.932 38.7441C96.7085 39.5205 96.3787 40.2622 95.952 40.9481C96.1312 41.0545 96.3319 41.1197 96.5394 41.139C96.7469 41.1584 96.9561 41.1314 97.152 41.0601L96.932 38.7441Z" fill="#ED893E"/>
<path d="M99.14 41.1762C98.8009 41.4616 98.3816 41.6349 97.94 41.6722C97.9209 41.6722 97.9026 41.6646 97.8891 41.6511C97.8756 41.6376 97.868 41.6193 97.868 41.6002C97.868 41.5811 97.8756 41.5628 97.8891 41.5493C97.9026 41.5358 97.9209 41.5282 97.94 41.5282C98.246 41.5075 98.5428 41.4148 98.8062 41.2577C99.0697 41.1006 99.2923 40.8836 99.456 40.6242C99.4602 40.6158 99.466 40.6083 99.4732 40.6023C99.4804 40.5962 99.4888 40.5918 99.4978 40.5891C99.5069 40.5865 99.5163 40.5858 99.5256 40.587C99.535 40.5882 99.5439 40.5913 99.552 40.5962C99.5689 40.6048 99.5817 40.6196 99.5877 40.6376C99.5937 40.6556 99.5923 40.6752 99.584 40.6922C99.4656 40.8784 99.3153 41.0422 99.14 41.1762Z" fill="#263238"/>
<path d="M99.644 37.444C99.6172 37.4699 99.5813 37.4844 99.544 37.4844C99.5067 37.4844 99.4709 37.4699 99.444 37.444C99.3262 37.3061 99.1774 37.1981 99.0099 37.1286C98.8424 37.0591 98.6608 37.0301 98.48 37.044C98.4611 37.0474 98.4416 37.047 98.4228 37.0428C98.4041 37.0386 98.3863 37.0307 98.3707 37.0195C98.355 37.0083 98.3417 36.9941 98.3317 36.9777C98.3216 36.9613 98.3149 36.943 98.312 36.924C98.3062 36.8859 98.3155 36.847 98.3379 36.8156C98.3603 36.7842 98.3941 36.7628 98.432 36.756C98.6608 36.7334 98.8916 36.7659 99.1053 36.8508C99.3189 36.9357 99.5091 37.0705 99.66 37.244C99.6734 37.2574 99.6841 37.2733 99.6914 37.2908C99.6986 37.3083 99.7024 37.327 99.7024 37.346C99.7024 37.3649 99.6986 37.3837 99.6914 37.4012C99.6841 37.4187 99.6734 37.4346 99.66 37.448L99.644 37.444Z" fill="#263238"/>
<path d="M94.82 37.828C94.8003 37.8444 94.7765 37.8553 94.7512 37.8596C94.7259 37.8638 94.6999 37.8612 94.676 37.852C94.6581 37.8457 94.6417 37.836 94.6277 37.8233C94.6138 37.8105 94.6025 37.7951 94.5947 37.7779C94.5868 37.7607 94.5825 37.7421 94.5821 37.7232C94.5816 37.7043 94.585 37.6855 94.592 37.668C94.6682 37.4511 94.795 37.2556 94.962 37.0977C95.129 36.9398 95.3312 36.824 95.552 36.76C95.5706 36.756 95.5898 36.7558 95.6086 36.7593C95.6273 36.7628 95.6452 36.7699 95.6611 36.7803C95.6771 36.7907 95.6909 36.8042 95.7017 36.8199C95.7124 36.8356 95.72 36.8533 95.724 36.872C95.7279 36.8906 95.7281 36.9099 95.7246 36.9286C95.7211 36.9473 95.714 36.9652 95.7036 36.9812C95.6932 36.9971 95.6797 37.0109 95.664 37.0217C95.6483 37.0325 95.6306 37.04 95.612 37.044C95.4382 37.0963 95.2793 37.1893 95.1486 37.3152C95.0178 37.4411 94.9189 37.5963 94.86 37.768C94.8514 37.7907 94.8377 37.8113 94.82 37.828Z" fill="#263238"/>
<path d="M109.904 39.152C110.84 44.1 107.94 48.78 103.368 49.876C103.192 49.916 103.012 49.952 102.832 49.984C100.628 50.3612 98.3625 49.8819 96.5 48.644C97.7651 48.9588 99.089 48.951 100.35 48.6213C101.612 48.2916 102.77 47.6505 103.719 46.7569C104.668 45.8632 105.378 44.7456 105.783 43.5064C106.188 42.2673 106.276 40.9463 106.038 39.6645C105.8 38.3828 105.244 37.1813 104.421 36.1702C103.598 35.1591 102.534 34.3708 101.327 33.8775C100.121 33.3842 98.8093 33.2018 97.5137 33.3469C96.2181 33.492 94.9797 33.96 93.912 34.708C94.8077 33.5051 96.0017 32.5566 97.376 31.956C97.9927 31.6906 98.6385 31.4986 99.3 31.384C104.184 30.536 108.928 34 109.904 39.152Z" fill="#E70000"/>
<path opacity="0.8" d="M109.904 39.152C110.84 44.1 107.94 48.78 103.368 49.876C103.192 49.916 103.012 49.952 102.832 49.984C100.628 50.3612 98.3625 49.8819 96.5 48.644C97.7651 48.9588 99.089 48.951 100.35 48.6213C101.612 48.2916 102.77 47.6505 103.719 46.7569C104.668 45.8632 105.378 44.7456 105.783 43.5064C106.188 42.2673 106.276 40.9463 106.038 39.6645C105.8 38.3828 105.244 37.1813 104.421 36.1702C103.598 35.1591 102.534 34.3708 101.327 33.8775C100.121 33.3842 98.8093 33.2018 97.5137 33.3469C96.2181 33.492 94.9797 33.96 93.912 34.708C94.8077 33.5051 96.0017 32.5566 97.376 31.956C97.9927 31.6906 98.6385 31.4986 99.3 31.384C104.184 30.536 108.928 34 109.904 39.152Z" fill="white"/>
<path d="M108.1 39.7521C108.976 44.1761 106.928 48.3321 103.388 49.8761C102.816 50.1214 102.217 50.2973 101.604 50.4001C98.716 50.8721 95.852 49.6601 93.872 47.4241C95.0336 48.2546 96.4011 48.7497 97.8251 48.8554C99.2491 48.9611 100.675 48.6733 101.946 48.0233C103.218 47.3734 104.286 46.3865 105.034 45.1704C105.783 43.9543 106.182 42.5559 106.189 41.128C106.197 39.7001 105.811 38.2977 105.075 37.0741C104.339 35.8506 103.281 34.8529 102.016 34.1902C100.751 33.5276 99.3283 33.2254 97.9033 33.3167C96.4783 33.4081 95.1059 33.8894 93.936 34.7081C93.1781 35.2333 92.5221 35.8921 92 36.6521C92.4675 35.5 93.2002 34.4743 94.1384 33.6584C95.0767 32.8424 96.1941 32.2592 97.4 31.9561C97.572 31.9161 97.744 31.8841 97.916 31.8521C102.5 31.0881 107.068 34.6321 108.1 39.7521Z" fill="#E70000"/>
<path opacity="0.6" d="M108.1 39.7521C108.976 44.1761 106.928 48.3321 103.388 49.8761C102.816 50.1214 102.217 50.2973 101.604 50.4001C98.716 50.8721 95.852 49.6601 93.872 47.4241C95.0336 48.2546 96.4011 48.7497 97.8251 48.8554C99.2491 48.9611 100.675 48.6733 101.946 48.0233C103.218 47.3734 104.286 46.3865 105.034 45.1704C105.783 43.9543 106.182 42.5559 106.189 41.128C106.197 39.7001 105.811 38.2977 105.075 37.0741C104.339 35.8506 103.281 34.8529 102.016 34.1902C100.751 33.5276 99.3283 33.2254 97.9033 33.3167C96.4783 33.4081 95.1059 33.8894 93.936 34.7081C93.1781 35.2333 92.5221 35.8921 92 36.6521C92.4675 35.5 93.2002 34.4743 94.1384 33.6584C95.0767 32.8424 96.1941 32.2592 97.4 31.9561C97.572 31.9161 97.744 31.8841 97.916 31.8521C102.5 31.0881 107.068 34.6321 108.1 39.7521Z" fill="white"/>
<path opacity="0.2" d="M106.164 40.7162C106.237 42.2547 105.853 43.7805 105.059 45.1005C104.266 46.4205 103.098 47.4755 101.705 48.1321C100.312 48.7888 98.755 49.0175 97.2318 48.7895C95.7085 48.5614 94.287 47.8869 93.1472 46.851C92.0073 45.8151 91.2001 44.4645 90.8278 42.97C90.4554 41.4754 90.5346 39.904 91.0553 38.4544C91.5761 37.0049 92.5149 35.7423 93.7531 34.8263C94.9914 33.9103 96.4735 33.382 98.012 33.3082C99.0337 33.2593 100.055 33.4121 101.018 33.7579C101.98 34.1037 102.865 34.6357 103.622 35.3236C104.379 36.0116 104.994 36.8419 105.43 37.7671C105.866 38.6924 106.115 39.6945 106.164 40.7162Z" fill="#E70000"/>
<path opacity="0.2" d="M90.604 41.46C90.7027 43.5234 91.617 45.463 93.1458 46.8523C94.6746 48.2416 96.6926 48.9666 98.756 48.868C100.819 48.7693 102.759 47.855 104.148 46.3262C105.538 44.7974 106.263 42.7794 106.164 40.716C102.668 39.928 94.212 39.376 90.604 41.46Z" fill="#E70000"/>
<path opacity="0.2" d="M107.34 59.628C103.771 59.8421 100.223 60.3167 96.724 61.048L96.528 60.868L106.96 53.728L107.152 53.908C107.152 53.908 107.236 57.732 107.34 59.628Z" fill="#263238"/>
<path d="M107.148 59.448C103.578 59.6624 100.029 60.137 96.528 60.868C96.332 58.952 96.18 57.024 96.084 55.08C99.6737 54.3782 103.308 53.9265 106.96 53.728C106.981 55.6454 107.044 57.552 107.148 59.448Z" fill="white"/>
<path opacity="0.3" d="M104.872 55.5761C104.871 55.7169 104.83 55.8545 104.754 55.9727C104.677 56.0908 104.568 56.1844 104.44 56.2426C104.312 56.3007 104.169 56.3208 104.03 56.3005C103.891 56.2802 103.76 56.2204 103.654 56.1282C103.547 56.0359 103.47 55.9151 103.43 55.7801C103.39 55.645 103.39 55.5014 103.429 55.3662C103.469 55.2311 103.546 55.1101 103.652 55.0175C103.758 54.925 103.889 54.8648 104.028 54.8441C104.236 54.8319 104.441 54.9017 104.599 55.0384C104.757 55.1752 104.855 55.3681 104.872 55.5761Z" fill="#E70000"/>
<path opacity="0.3" d="M104.936 57.8518C104.935 57.9928 104.894 58.1306 104.818 58.2489C104.741 58.3672 104.632 58.4609 104.503 58.519C104.375 58.5771 104.232 58.5971 104.093 58.5766C103.953 58.5561 103.823 58.4959 103.716 58.4033C103.61 58.3107 103.533 58.1895 103.493 58.0541C103.454 57.9187 103.454 57.7749 103.494 57.6397C103.534 57.5045 103.612 57.3836 103.719 57.2915C103.826 57.1993 103.956 57.1397 104.096 57.1198C104.304 57.1087 104.508 57.1789 104.664 57.3155C104.821 57.4522 104.919 57.6445 104.936 57.8518Z" fill="#E70000"/>
<path d="M97.84 59.2323C99.1333 59.001 100.438 58.8368 101.748 58.7403C100.88 57.5403 99.58 55.4883 99.58 55.4883C98.9309 56.703 98.35 57.953 97.84 59.2323Z" fill="#E70000"/>
</g>
<defs>
<clipPath id="clip0_41_822">
<rect width="200" height="200" fill="white" transform="translate(0.5)"/>
</clipPath>
</defs>
</svg>
