<svg id="Слой_1" data-name="Слой 1" xmlns="http://www.w3.org/2000/svg" viewBox="0 0 1000 712.32"><defs><style>.cls-1{fill:#d5e5fb;}.cls-2{fill:#c4dbf7;}.cls-3{fill:#c3dafc;}.cls-4{fill:#d4e4f8;}.cls-5{fill:#9dc3f3;}.cls-6{fill:#e3f0ff;}.cls-7{fill:#fff;}.cls-8{fill:#c1d8f4;}.cls-9{fill:#699dee;}.cls-10{fill:#233862;}.cls-11{fill:#2a4e96;}.cls-12{fill:#ed823a;}.cls-13{fill:#ff9e55;}.cls-14{fill:#dd732c;}.cls-15{fill:#ffb27d;}.cls-16{fill:#ed975d;}.cls-17{fill:#d8702a;}.cls-18{fill:#c15e1b;}.cls-19{fill:#a9453d;}.cls-20{fill:#2c3a64;}.cls-21{fill:#163560;}.cls-22{fill:#ed7d2b;}.cls-23{fill:#234884;}.cls-24{fill:#ed985f;}</style></defs><rect class="cls-1" x="471.76" y="2.4" width="68.65" height="589.51"/><rect class="cls-2" y="589.66" width="1000" height="122.66"/><rect class="cls-3" x="283.47" y="183.72" width="53.2" height="43.86" transform="translate(620.13 411.3) rotate(180)"/><rect class="cls-4" x="310.06" y="183.72" width="53.2" height="43.86" transform="translate(673.33 411.3) rotate(180)"/><polygon class="cls-5" points="283.5 216.46 291.93 216.46 291.19 214.09 291.93 212.39 283.5 212.39 283.5 216.46"/><polygon class="cls-6" points="310.06 197.29 318.49 197.29 317.75 194.92 318.49 193.23 310.06 193.23 310.06 197.29"/><polygon class="cls-5" points="310.06 193.23 301.64 193.23 302.38 195.6 301.64 197.29 310.06 197.29 310.06 193.23"/><polygon class="cls-6" points="363.26 216.93 354.83 216.93 355.57 219.3 354.83 221 363.26 221 363.26 216.93"/><rect class="cls-7" x="344.47" y="186.69" width="15.31" height="5.96"/><rect class="cls-3" x="166.68" y="170.72" width="68.97" height="56.87" transform="translate(402.32 398.3) rotate(180)"/><rect class="cls-4" x="201.16" y="170.72" width="68.97" height="56.87" transform="translate(471.29 398.3) rotate(180)"/><polygon class="cls-5" points="166.72 213.16 177.65 213.16 176.69 210.09 177.65 207.89 166.72 207.89 166.72 213.16"/><polygon class="cls-6" points="201.16 188.32 212.09 188.32 211.13 185.24 212.09 183.04 201.16 183.04 201.16 188.32"/><polygon class="cls-5" points="201.16 183.04 190.23 183.04 191.2 186.12 190.23 188.32 201.16 188.32 201.16 183.04"/><polygon class="cls-6" points="270.13 213.77 259.2 213.77 260.16 216.85 259.2 219.04 270.13 219.04 270.13 213.77"/><rect class="cls-7" x="245.77" y="174.57" width="19.85" height="7.72"/><rect class="cls-8" x="609.11" y="273.12" width="339.68" height="316.89"/><rect class="cls-6" x="619.75" y="282.91" width="318.41" height="31.04"/><rect class="cls-6" x="619.75" y="344.47" width="318.41" height="31.04"/><rect class="cls-4" x="619.75" y="313.69" width="318.41" height="31.04"/><rect class="cls-6" x="619.75" y="406.03" width="318.41" height="31.04"/><rect class="cls-4" x="619.75" y="375.25" width="318.41" height="31.04"/><rect class="cls-6" x="619.75" y="466.93" width="318.41" height="31.04"/><rect class="cls-4" x="619.75" y="436.15" width="318.41" height="31.04"/><rect class="cls-4" x="619.75" y="497.43" width="318.41" height="31.04"/><rect class="cls-6" x="619.75" y="528.47" width="318.41" height="31.04"/><rect class="cls-4" x="619.75" y="558.97" width="318.41" height="31.04"/><rect class="cls-1" x="609.11" y="191.75" width="339.68" height="58.82"/><rect class="cls-3" x="45.59" y="227.58" width="28.07" height="366.06"/><rect class="cls-3" x="377.71" y="227.58" width="27.24" height="366.06"/><rect class="cls-9" x="73.65" y="227.58" width="331.3" height="8.59"/><rect class="cls-9" x="73.65" y="401.09" width="331.3" height="9.53"/><rect class="cls-9" x="73.65" y="546.61" width="331.3" height="11.35"/><rect class="cls-3" x="241.02" y="333.06" width="82.5" height="68.02" transform="translate(564.53 734.15) rotate(180)"/><rect class="cls-4" x="282.27" y="333.06" width="82.5" height="68.02" transform="translate(647.03 734.15) rotate(180)"/><polygon class="cls-5" points="241.07 383.84 254.14 383.84 252.99 380.16 254.14 377.53 241.07 377.53 241.07 383.84"/><polygon class="cls-6" points="282.26 354.12 295.34 354.12 294.19 350.44 295.34 347.81 282.26 347.81 282.26 354.12"/><polygon class="cls-5" points="282.26 347.81 269.19 347.81 270.35 351.49 269.19 354.12 282.26 354.12 282.26 347.81"/><polygon class="cls-6" points="364.76 384.57 351.69 384.57 352.84 388.25 351.69 390.87 364.76 390.87 364.76 384.57"/><rect class="cls-7" x="335.62" y="337.68" width="23.74" height="9.24"/><rect class="cls-3" x="135.15" y="333.06" width="82.5" height="68.02" transform="translate(352.79 734.15) rotate(180)"/><rect class="cls-4" x="176.4" y="333.06" width="82.5" height="68.02" transform="translate(435.29 734.15) rotate(180)"/><polygon class="cls-10" points="135.2 383.84 148.27 383.84 147.12 380.16 148.27 377.53 135.2 377.53 135.2 383.84"/><polygon class="cls-11" points="176.4 354.12 189.47 354.12 188.32 350.44 189.47 347.81 176.4 347.81 176.4 354.12"/><polygon class="cls-10" points="176.4 347.81 163.32 347.81 164.47 351.49 163.32 354.12 176.4 354.12 176.4 347.81"/><polygon class="cls-11" points="258.89 384.57 245.82 384.57 246.97 388.25 245.82 390.87 258.89 390.87 258.89 384.57"/><rect class="cls-7" x="182.93" y="381.41" width="31.86" height="12.39"/><rect class="cls-3" x="119.76" y="488.56" width="70.13" height="57.83" transform="translate(309.65 1034.95) rotate(180)"/><rect class="cls-4" x="154.82" y="488.56" width="70.13" height="57.83" transform="translate(379.78 1034.95) rotate(180)"/><polygon class="cls-5" points="119.8 531.72 130.91 531.72 129.93 528.6 130.91 526.36 119.8 526.36 119.8 531.72"/><polygon class="cls-6" points="154.82 506.45 165.94 506.45 164.96 503.33 165.94 501.09 154.82 501.09 154.82 506.45"/><polygon class="cls-5" points="154.82 501.09 143.71 501.09 144.69 504.22 143.71 506.45 154.82 506.45 154.82 501.09"/><polygon class="cls-6" points="224.96 532.34 213.84 532.34 214.82 535.47 213.84 537.71 224.96 537.71 224.96 532.34"/><rect class="cls-7" x="200.18" y="492.48" width="20.18" height="7.85"/><rect class="cls-3" x="233.46" y="488.42" width="70.31" height="57.97" transform="translate(537.24 1034.8) rotate(180)"/><rect class="cls-4" x="268.62" y="488.42" width="70.31" height="57.97" transform="translate(607.54 1034.8) rotate(180)"/><polygon class="cls-5" points="233.51 531.69 244.65 531.69 243.66 528.55 244.65 526.31 233.51 526.31 233.51 531.69"/><polygon class="cls-6" points="268.62 506.36 279.76 506.36 278.78 503.22 279.76 500.98 268.62 500.98 268.62 506.36"/><polygon class="cls-5" points="268.62 500.98 257.48 500.98 258.46 504.12 257.48 506.36 268.62 506.36 268.62 500.98"/><polygon class="cls-6" points="338.93 532.31 327.79 532.31 328.77 535.44 327.79 537.68 338.93 537.68 338.93 532.31"/><rect class="cls-7" x="314.09" y="492.35" width="20.23" height="7.87"/><rect class="cls-3" x="128.77" y="281.15" width="63.07" height="52" transform="translate(320.61 614.31) rotate(180)"/><rect class="cls-4" x="160.31" y="281.15" width="63.07" height="52" transform="translate(383.68 614.31) rotate(180)"/><polygon class="cls-5" points="128.81 319.97 138.8 319.97 137.92 317.15 138.8 315.14 128.81 315.14 128.81 319.97"/><polygon class="cls-6" points="160.31 297.25 170.3 297.25 169.42 294.43 170.3 292.42 160.31 292.42 160.31 297.25"/><polygon class="cls-5" points="160.31 292.42 150.31 292.42 151.19 295.24 150.31 297.25 160.31 297.25 160.31 292.42"/><polygon class="cls-6" points="223.38 320.52 213.38 320.52 214.26 323.34 213.38 325.35 223.38 325.35 223.38 320.52"/><rect class="cls-7" x="201.1" y="284.68" width="18.15" height="7.06"/><rect class="cls-12" x="259.07" y="293.69" width="47.8" height="39.42"/><rect class="cls-13" x="235.17" y="293.69" width="47.8" height="39.42"/><polygon class="cls-14" points="306.85 323.12 299.27 323.12 299.94 320.98 299.27 319.46 306.85 319.46 306.85 323.12"/><polygon class="cls-15" points="282.98 305.89 275.4 305.89 276.07 303.76 275.4 302.24 282.98 302.24 282.98 305.89"/><polygon class="cls-14" points="282.98 302.24 290.55 302.24 289.88 304.37 290.55 305.89 282.98 305.89 282.98 302.24"/><polygon class="cls-15" points="235.17 323.54 242.75 323.54 242.08 325.67 242.75 327.19 235.17 327.19 235.17 323.54"/><rect class="cls-7" x="238.3" y="296.37" width="13.76" height="5.35" transform="translate(490.36 598.09) rotate(180)"/><rect class="cls-7" x="73.65" y="227.58" width="75.2" height="75.2"/><rect class="cls-13" x="77.67" y="231.6" width="67.17" height="67.17"/><g id="P297LW"><path class="cls-10" d="M130.54,420.63s-3.21-6.77-.69-10.93,12.5-4.43,12.5-4.43-.87.48-.91.91,2.86-1.13,4.86,2.39,1.9,6.8-.22,11.67S130.54,420.63,130.54,420.63Z"/><path class="cls-13" d="M180.73,488.26c-1.93.45-10.65.55-16.77-.82a18.8,18.8,0,0,1-3.41-1.07,5.18,5.18,0,0,1-2.46-1.86c-.69-1.15-2-5.1-3.45-10.27-4.1-14.25-9.87-37.8-9.87-37.8s11.59,2.36,14,4.38,4.61,34,6.92,34.9c.34.12.92.39,1.67.76l.12,0,1.49.76c4.78,2.46,11.73,7,13.52,7.87C184.06,485.87,183.54,487.61,180.73,488.26Z"/><path class="cls-13" d="M158.5,454.66a9,9,0,0,0-.15-1.63c-1.49-8.2-13.34-16.42-13.58-16.42h0c0,1.25-2,3.56-5,3.76-3.61.24-8-1.56-8-3.63,0,0-2.05,0-2.73.08-2.89.33-8.66,1.89-11.14,3.76s1,13,3,20.9c.87,3.36,1.52,6.12,1.41,7.35-.05.6-.59,8.74-1.07,16.1-.4,6.07-.76,11.62-.77,12,0,.69,3.41,3.1,9.17,4.93a43.71,43.71,0,0,0,4.56,1.18,48.7,48.7,0,0,0,9.94,1c1.19,0,2.32-.07,3.38-.17C155.73,503,158.55,493.65,158.5,454.66Z"/><path class="cls-15" d="M180.74,488.24c-.28.07-.66.11-1.14.18a64.25,64.25,0,0,1-6.9.07c-4.26-.21-9.14-.8-12.16-2.12,1.46-5.54,4.51-8.38,7-9.84,2.11,1,5.47,2.81,8.48,4.54h0c3.22,1.8,5.55,3.77,6.51,4.09C184.13,485.68,183.55,487.62,180.74,488.24Z"/><path class="cls-15" d="M131.7,436.38a69.73,69.73,0,0,1,.41-10.2l12.71,2.08s0,3.87-.06,8.18h0s.35,4-4.57,4.57S131.57,439.46,131.7,436.38Z"/><path class="cls-10" d="M142.33,605.12c-1.6-1-.66-8.27-.66-8.27s7.48-5.94,8.49-1.37,7.06,6.65,10.51,7.22c2.38.4,3.11,1.72,3.34,2.5Z"/><path class="cls-10" d="M119.4,605.12c-1.6-1-.66-8.27-.66-8.27s7.48-5.94,8.49-1.37,7.06,6.65,10.51,7.22c2.38.4,3.11,1.72,3.34,2.5Z"/><path class="cls-11" d="M120.45,496.9c0,.69,3.41,3.1,9.17,4.93.46.15.94.29,1.44.43h0c.53,6.3,2,15.21,3.3,23.8h0c.34,2.22.67,4.43,1,6.56a132.27,132.27,0,0,1,1.47,14.51v0c0,1.7-1.41,5.94-1.52,6.92-.06.6-.12,1.23-.16,1.89a79.18,79.18,0,0,0,.12,9.14c.94,14.62,4.81,33.31,6.18,34.11,2.74,1.58,7.72,0,10.26-.37a2.09,2.09,0,0,0,1.83-2.11c-1.24-24.25,2.32-58,5-78.79l.21-1.59c.32-2.45.53-4.73.66-6.8.12-1.8.18-3.45.21-4.87,0-.44,0-.87,0-1.27,0-1.3-1-9.8-1.08-48.79h0a1.64,1.64,0,0,0-1.64-1.63H133a4.12,4.12,0,0,0-4.13,4.18,66.73,66.73,0,0,1-.72,11.09c-.88,5.42-2.76,10.47-6.65,11.69h0s-.13.27-.3.67h0c0,1-.07,2-.12,3l0,.62c0,.12,0,.24,0,.36s0,.41,0,.62,0,.69,0,1,0,.55,0,.82c0,.53-.06,1.07-.1,1.6l0,.52c0,.7-.09,1.41-.15,2.12,0,.22,0,.44-.05.66s0,.21,0,.31c0,.28,0,.56-.07.84s-.05.6-.07.9C120.34,495.15,120.48,496.13,120.45,496.9Z"/><path class="cls-10" d="M135.25,565.14c.94,14.62,4.81,33.31,6.18,34.11,2.74,1.58,7.72,0,10.26-.37a2.09,2.09,0,0,0,1.83-2.11c-1.24-24.25,2.32-58,5-78.79l.21-1.59c.32-2.45.53-4.73.66-6.8-1.26-8.23-8.39-8.67-14.86,8.36.8,5.65-7.69,25.39-7.69,29.2v0c0,1.7-1.41,5.94-1.52,6.92-.06.6-.12,1.23-.16,1.89A79.18,79.18,0,0,0,135.25,565.14Z"/><path class="cls-11" d="M120.19,546.46c-.2,1.69-2.18,5.71-2.41,6.66-3.27,13.15-1.47,44.31.15,45.56,2.51,1.93,7.66,1,10.22,1a2.09,2.09,0,0,0,2.09-1.85c2-24.83,10.34-58.94,15.69-79A94,94,0,0,0,149,501.27s-25-15.33-27.73-7C118.88,501.73,121.7,533.49,120.19,546.46Z"/><path class="cls-11" d="M128.13,436.94s7.38,8.59,7.81,16.09h-3.75a35.84,35.84,0,0,0-6.5-15.58Z"/><path class="cls-11" d="M146.47,436.92A37.7,37.7,0,0,1,152.38,453h3.75c-.31-5.9-4-12.17-6-15.25h0C148.71,437.4,147.43,437.11,146.47,436.92Z"/><path class="cls-13" d="M122.23,483.06c.18,8.8-.91,26.33-.91,26.33h-5.19c-2.45-12.33-3.32-20.26-3.32-24.59,0-.85,0-1.65,0-2.38,0-3.69.13-5.84.13-5.84-1-22.38,3.5-34.35,4.9-36s7.83-3.13,7.83-3.13a86.87,86.87,0,0,1,3,11.16c.87,5-6.8,25.87-6.49,33C122.2,482.07,122.22,482.55,122.23,483.06Z"/><path class="cls-15" d="M121.91,497.63c-.24,6.34-.59,11.75-.59,11.75h-5.19c-.9-4.4-1.56-8.25-2.08-11.54a93.73,93.73,0,0,1-1.25-13c0-.86,0-1.66,0-2.39a18.15,18.15,0,0,1,9.39.66C122.29,487,122.12,492.61,121.91,497.63Z"/><path class="cls-15" d="M125,515.89c.07,1.42-6.14,4.68-8,3.81s-1.94-5.79-.86-10.32,5.19,0,5.19,0S124.93,514.43,125,515.89Z"/><path class="cls-15" d="M192.8,488.42H179.6l2.94-3.26a14,14,0,0,0,5.61,0C190.37,484.47,192.8,488.42,192.8,488.42Z"/><path class="cls-16" d="M131.8,429.46s3.15,3.73,6.51,3.73c4.18,0,6.46-4,6.46-4Z"/><path class="cls-15" d="M144.44,429.5c-1.24,1-4.85,1.93-5.9,2,0,0-5.37-1.19-6.34-1.78-1.52-.92-1.42-2.77-1.5-5.35-.09-3.05-.4-5.45-.06-7.2.41-2.11,1.74-3.31,5.48-3.63,6.85-.6,9.71,1.12,9.83,3.42,0,.62.06,1.21.08,1.76C146.3,425.93,145.74,428.47,144.44,429.5Z"/><path class="cls-10" d="M130.54,420.63s-.56-6.12,3-6.12,8.46,4.61,10.63,1.65,1.87,4.08,1.87,4.08l.22-9.41-13.89-.53-2.91,2.17Z"/></g><path class="cls-7" d="M417.17,70.33H142.73a8.58,8.58,0,0,1-8.58-8.57h0a8.58,8.58,0,0,1,8.58-8.58H417.17a8.58,8.58,0,0,1,8.58,8.58h0A8.58,8.58,0,0,1,417.17,70.33Z"/><rect class="cls-7" x="168.45" y="2.4" width="8.58" height="50.78"/><rect class="cls-7" x="381.78" y="2.4" width="8.58" height="50.78"/><path class="cls-7" d="M906.74,70.33H632.3a8.58,8.58,0,0,1-8.58-8.57h0a8.58,8.58,0,0,1,8.58-8.58H906.74a8.58,8.58,0,0,1,8.58,8.58h0A8.58,8.58,0,0,1,906.74,70.33Z"/><rect class="cls-7" x="658.03" y="2.4" width="8.58" height="50.78"/><rect class="cls-7" x="871.35" y="2.4" width="8.58" height="50.78"/><rect class="cls-17" x="294.81" y="463.39" width="43.31" height="35.71"/><rect class="cls-13" x="273.15" y="463.39" width="43.31" height="35.71"/><polygon class="cls-18" points="338.1 490.05 331.23 490.05 331.84 488.12 331.23 486.74 338.1 486.74 338.1 490.05"/><polygon class="cls-15" points="316.46 474.44 309.6 474.44 310.21 472.51 309.6 471.13 316.46 471.13 316.46 474.44"/><polygon class="cls-18" points="316.46 471.13 323.33 471.13 322.72 473.06 323.33 474.44 316.46 474.44 316.46 471.13"/><polygon class="cls-15" points="273.15 490.43 280.02 490.43 279.41 492.36 280.02 493.74 273.15 493.74 273.15 490.43"/><rect class="cls-7" x="275.99" y="465.81" width="12.46" height="4.85" transform="translate(564.44 936.47) rotate(180)"/><path class="cls-15" d="M293.59,497.58c-1.06-.68-3.44-2.18-3.55-1.82a1.63,1.63,0,0,0,.36,1.13c-1.42-.48-2.86-.76-6.2,0a2.57,2.57,0,0,0-1.62,1.16,1.11,1.11,0,0,0,.45,1.72c1.77,1,1.24.39,3.69,1.85s5.4,1.75,7.1.59l2.34-.48.14-3.87S295,497.76,293.59,497.58Z"/><path class="cls-15" d="M354.29,457.72s-6.65,5.44-13.07,1.44a21.27,21.27,0,0,1-.34-6.55c.06-.33.12-.64.17-.95.52-3,.74-4.69.74-4.69h0c.34-.08,11.41-2.37,11.34-2C351.43,453,354.29,457.72,354.29,457.72Z"/><path class="cls-16" d="M351.73,446.69a16.34,16.34,0,0,1-10.68,5c.52-3,.74-4.69.74-4.69h0C342.09,446.94,352.13,446.2,351.73,446.69Z"/><path class="cls-15" d="M339.69,446.25s11.05,4.89,14-2,6.34-11-.59-14.38-9.43-1.35-11,.72S336.89,444.8,339.69,446.25Z"/><path class="cls-19" d="M352.91,446.1c.14.13,2.49,1.36,8.95-7.14a8.3,8.3,0,0,0,.93-7.56c-1.2-3.14-6.9-6.5-11.79-8.42s-6.66.72-8.39,3.36-5.91,4.59-5.91,4.59c3.92,3.26,9.85.75,11.57,1.67s1.82,3.92,1.79,4.87,0,1.75,2.48,1.36.43,3.45-.09,4.16C352.45,443,351.75,445,352.91,446.1Z"/><path class="cls-20" d="M369.82,630.64h7.12c1.5,0,3.16-1.5,3.57-4.24s3.48-4.23,4.15-6.47-2.74-5.39-2.74-5.39l-.57-.73-.59-.76-5.64,1.32s-.14,1.35-.23,3.06c-.06,1.23-.09,2.66,0,3.91.17,3-.84,6.21-3.49,6.79S369.82,630.64,369.82,630.64Z"/><path class="cls-20" d="M320.25,630.64h18.87a2,2,0,0,0,.4-.12c1.27-.63.87-5.46.72-6.95l-.05-.44s-6.64-5.3-7.55-1.24c0,.13-.06.25-.1.37h0c-1.15,3.8-6.3,5.53-9.28,6C321,628.65,320.4,630,320.25,630.64Z"/><path class="cls-13" d="M324.05,521.78s1,12.58,2.2,27.7C327.86,570,329.79,595.24,330,600c.33,8.3,1.66,21.57,1.66,21.57s3.15,3.16,9.46,1.83a217.43,217.43,0,0,0,7.23-39c0-.33.05-.66.07-1C349.9,563,352.22,520,352.22,520Z"/><path class="cls-12" d="M327.81,520.94s-.65,7.85,3,22.57c2.66,10.81,17.54,40.91,17.54,40.91,0-.33.05-.66.07-1C349.9,563,352.22,520,352.22,520Z"/><path class="cls-13" d="M327.81,520.94s19,47.88,31,69.29,15.68,27.38,15.68,27.38,6.85-2.74,7.47-4.61c0,0-4.57-41.32-12.57-51.39-4.52-5.7-9.83-22.78-10.08-28.75s-1.62-17.8-1.62-17.8Z"/><path class="cls-11" d="M326.85,520c2.66.16,30.74-.9,30.75-2.47,0-5.45,1.16-14.28,2.58-25,.27-2,.47-4,.62-5.94a90.71,90.71,0,0,0,0-14.46c-.7-8.25-4.21-14.9-7.78-18-.47-.39-2.2.92-5.1,2.1-2.69,1.08-4.81.3-7.22-.37l-3.08,2.71a29.22,29.22,0,0,0-6.65,9.32S326.61,520,326.85,520Z"/><path class="cls-13" d="M331,467.93l7.67,1.78,10.55,28.58a10.46,10.46,0,0,0,9.81,6.83h0l-.93,14.11-34.05,2.55Z"/><path class="cls-11" d="M294.23,499.75c-.24-2.23.9-2.65.9-2.65s22.6-5,24.51-5.69,17.8-18.54,17.8-18.54,6.06-7.39,11.32-6c4.56,1.2,6.46,4.65,7.19,8a9.88,9.88,0,0,1-4.19,10.32c-7.59,5.07-22.77,15.06-26.4,16.27-8.05,2.71-30,1.36-30,1.36A7.14,7.14,0,0,1,294.23,499.75Z"/><path class="cls-12" d="M346.62,461.43c1.78-1.66,7.51-6.21,7.51-6.21l-1.08-1.05c-.76-.16-6.68,4.29-8.65,6-2.37,2.12-9,9-9,9l3.23.48S344.52,463.38,346.62,461.43Z"/><rect class="cls-21" x="804.27" y="602.36" width="64.48" height="60.14" rx="15.03"/><path class="cls-15" d="M738.77,513s-4.11.2-4.95-.14-3.14-1.7-2.8-3.22c.21-.94,1.91.56,2.61.28s-1.42-.48-1.52-.84,1.74-.54,2.41-.66,2.58,1.43,4.1,1.84S738.77,513,738.77,513Z"/><path class="cls-22" d="M792.57,508.55s-5.71,6.47-12.65,7.4-17.18,3-20.34,3-21.1-5.55-21.1-5.55a2.45,2.45,0,0,1,0-1.85,3,3,0,0,1,1.27-1.72s12.3.31,18,1.11c2.38.33,18.62-9.36,21.17-15.2C780,493.46,792.57,508.55,792.57,508.55Z"/><rect class="cls-12" x="511.26" y="565.49" width="113.61" height="93.68"/><rect class="cls-13" x="454.46" y="565.49" width="113.61" height="93.68"/><polygon class="cls-14" points="624.81 635.42 606.81 635.42 608.39 630.35 606.81 626.73 624.81 626.73 624.81 635.42"/><polygon class="cls-15" points="568.07 594.49 550.07 594.49 551.65 589.42 550.07 585.8 568.07 585.8 568.07 594.49"/><polygon class="cls-14" points="568.07 585.8 586.07 585.8 584.49 590.87 586.07 594.49 568.07 594.49 568.07 585.8"/><polygon class="cls-15" points="454.45 636.42 472.46 636.42 470.87 641.49 472.46 645.11 454.45 645.11 454.45 636.42"/><rect class="cls-7" x="461.9" y="571.85" width="32.69" height="12.72" transform="translate(956.49 1156.41) rotate(180)"/><rect class="cls-12" x="499.02" y="471.9" width="113.61" height="93.68"/><rect class="cls-13" x="442.21" y="471.9" width="113.61" height="93.68"/><polygon class="cls-14" points="612.57 541.82 594.57 541.82 596.15 536.76 594.57 533.14 612.57 533.14 612.57 541.82"/><polygon class="cls-15" points="555.83 500.89 537.83 500.89 539.41 495.82 537.83 492.2 555.83 492.2 555.83 500.89"/><polygon class="cls-14" points="555.83 492.2 573.83 492.2 572.25 497.27 573.83 500.89 555.83 500.89 555.83 492.2"/><polygon class="cls-15" points="442.21 542.83 460.21 542.83 458.63 547.89 460.21 551.51 442.21 551.51 442.21 542.83"/><rect class="cls-7" x="449.65" y="478.25" width="32.69" height="12.72" transform="translate(932 969.22) rotate(180)"/><rect class="cls-21" x="644.63" y="427.48" width="30.13" height="237.87"/><rect class="cls-9" x="749.78" y="569.12" width="96.82" height="39.63" rx="9.91"/><polygon class="cls-23" points="684.77 639.49 807.42 644.47 807.42 593.84 682.73 595.87 684.77 639.49"/><circle class="cls-11" cx="691.1" cy="650.79" r="37.97" transform="translate(-196.44 314.01) rotate(-22.5)"/><circle class="cls-21" cx="691.1" cy="650.79" r="21.88" transform="translate(-62 1228.72) rotate(-80.78)"/><circle class="cls-11" cx="861.07" cy="658.84" r="29.93" transform="matrix(0.23, -0.97, 0.97, 0.23, 22.02, 1345.5)"/><path class="cls-21" d="M843.82,658.84a17.25,17.25,0,1,1,17.25,17.25A17.25,17.25,0,0,1,843.82,658.84Z"/><path class="cls-13" d="M839.37,561.29v22.6H807.72l-75.64,49.73v37h74.84a14.17,14.17,0,0,0,14.17-14.17V648A27.57,27.57,0,0,1,833,625.4h0A25,25,0,0,1,847.17,621h23.89a11.7,11.7,0,0,0,11.7-11.71V573.83a12.53,12.53,0,0,0-12.53-12.54Z"/><path class="cls-21" d="M685.14,608l-10.38-1.14,58.33-138.25A48.63,48.63,0,0,1,778,438.78h48.93a21.9,21.9,0,0,1,21.88,21.88V583.89h-9.94V460.66a12,12,0,0,0-11.94-11.93H778a38.68,38.68,0,0,0-35.72,23.7Z"/><path class="cls-21" d="M735.1,673.28a2.72,2.72,0,0,1-2.72-2.71V642.74A34.78,34.78,0,0,0,697.64,608l-.32,0c-.21,0-21.5-2.31-37.78,10.37a2.71,2.71,0,0,1-3.34-4.28c17.48-13.61,39.3-11.73,41.59-11.49a40.21,40.21,0,0,1,40,40.16v27.83A2.72,2.72,0,0,1,735.1,673.28Z"/><rect class="cls-21" x="445.58" y="658.07" width="199.05" height="7.28"/><rect class="cls-21" x="637.85" y="580.28" width="6.78" height="85.07"/><path class="cls-11" d="M819.44,523.58l-3.59,45.54H759.36s-3-12.72,6.38-13.28,31.82-3.94,31.82-3.94-1.1-28.28,16.18-33A4.52,4.52,0,0,1,819.44,523.58Z"/><path class="cls-15" d="M788.4,492.81s-5.78,3.52-12.06,2.53c0,0-1.24-.32-.63-1.77a19.05,19.05,0,0,1-.56-1.95,29.76,29.76,0,0,1-.72-3.17l3.56-3.74,3.38-3.58C782.3,489.68,788.4,492.81,788.4,492.81Z"/><path class="cls-24" d="M781.91,484.37s-1.94,5.18-6.76,7.25c-.55-2-.91-4.11-.91-4.11l3.75-2.8Z"/><path class="cls-15" d="M770.44,488.27s11,1.38,11.82-5.41,2.72-11.18-4.3-12.35-8.69,1.27-9.51,3.48S767.58,487.74,770.44,488.27Z"/><path class="cls-20" d="M785.75,469.41c.09-.12.32-.22.83-.27a2.07,2.07,0,0,0-1-.23,2.57,2.57,0,0,0-1.79-2.21,1.51,1.51,0,0,1,.78,1.08c-1.47-1.41-4.55-2.35-12.94-1.37-11,1.3-7.13,8.26-5.66,9s5-1.67,7.67-1.55,3.34,3.95,4.27,4.45.53-.43,1.74-1,1.4,1.43,1.09,2.76,1.45,3,1.45,3l1.64-1.9c1.63-1.9,2.95-9.74,2.11-11.36C785.89,469.7,785.82,469.56,785.75,469.41Z"/><path class="cls-21" d="M798.79,535.13s-50.39,2.25-57.26,7.24-18.9,47.06-18.9,47.06,2.44,2.12,9.67,0c0,0,10.19-13,14.08-21.87,3.46-7.89,4.69-11.87,6.18-11.47,3.15.86,35.45,2,45-4.19C803.67,548,798,535.13,798.79,535.13Z"/><path class="cls-13" d="M788.4,491.79s6.46,5.31,8.5,21.18,4.32,29.82,3.07,30.38c-8.84,4-32.59-.08-32-9.52s2.77-37.41,8.37-39.89A30.1,30.1,0,0,1,788.4,491.79Z"/><path class="cls-21" d="M742.39,535.5h0a2.07,2.07,0,0,1-2.7-1.11l-10.46-25.06a2.07,2.07,0,0,1,1.1-2.7h0a2.07,2.07,0,0,1,2.7,1.11l10.46,25.07A2.06,2.06,0,0,1,742.39,535.5Z"/><path class="cls-15" d="M741.75,521.39s-4,1.08-4.87.93-3.43-1-3.43-2.54c0-1,2,.14,2.61-.28s-1.49-.17-1.67-.5,1.59-.9,2.21-1.16,2.84.83,4.41.91S741.75,521.39,741.75,521.39Z"/><path class="cls-13" d="M793.31,505.42s-4.18,7.55-10.76,9.95-16.13,6.62-19.21,7.33-21.8-.87-21.8-.87a2.5,2.5,0,0,1-.35-1.82,3,3,0,0,1,.88-2s12.07-2.36,17.84-2.81c2.4-.19,16.18-13.15,17.4-19.4C777.79,493.39,793.31,505.42,793.31,505.42Z"/><path class="cls-21" d="M731.46,588s.57,6.58-.83,7.27l-17.8,0s0-2.06,2.86-2.51,7.88-2.13,8.73-5.86S731.46,588,731.46,588Z"/><path class="cls-21" d="M721.87,517.8H730a5,5,0,0,1,4.67,3.29l2.34,6.5a5,5,0,0,1-.28,4l-1.34,2.54a20,20,0,0,1-16.23,10.59l-9.86.71,7.89-24.2A5,5,0,0,1,721.87,517.8Z"/><path class="cls-7" d="M107.09,260.46h4.19a5.93,5.93,0,0,0,4.43-1.49,5.5,5.5,0,0,0,1.44-4,6.07,6.07,0,0,0-.33-2,4.16,4.16,0,0,0-1-1.6,4.5,4.5,0,0,0-1.67-1.05,6.77,6.77,0,0,0-2.37-.38,6.56,6.56,0,0,0-2.05.31,5.47,5.47,0,0,0-1.68.88,4.14,4.14,0,0,0-1.15,1.41,4,4,0,0,0-.42,1.86H98.64a9.62,9.62,0,0,1,1-4.45,10.25,10.25,0,0,1,2.78-3.39,13,13,0,0,1,4.12-2.18,16,16,0,0,1,5-.78,19.32,19.32,0,0,1,5.45.73,12.05,12.05,0,0,1,4.23,2.14A9.8,9.8,0,0,1,124,250a11.47,11.47,0,0,1,1,4.87,8.48,8.48,0,0,1-1.56,4.89,11,11,0,0,1-4.44,3.62,9.9,9.9,0,0,1,5,3.59,9.8,9.8,0,0,1,1.64,5.66,11.14,11.14,0,0,1-1.07,4.95,10.6,10.6,0,0,1-3,3.65,13.14,13.14,0,0,1-4.45,2.25,19,19,0,0,1-5.56.79,17.91,17.91,0,0,1-4.94-.69,13,13,0,0,1-4.32-2.09,10.88,10.88,0,0,1-3-3.55,10.47,10.47,0,0,1-1.15-5.06H106a4.7,4.7,0,0,0,1.65,3.62,5.66,5.66,0,0,0,1.83,1.05,6.91,6.91,0,0,0,2.31.38,7.77,7.77,0,0,0,2.5-.38,4.93,4.93,0,0,0,1.89-1.11,4.71,4.71,0,0,0,1.19-1.71,5.76,5.76,0,0,0,.41-2.21,7.36,7.36,0,0,0-.45-2.71A4.46,4.46,0,0,0,116,268a5.45,5.45,0,0,0-2-1.05,10.24,10.24,0,0,0-2.7-.33h-4.19Z"/></svg>